<svg  width="22" height="22" viewBox="0 0 22 22" fill="none
" xmlns="http://www.w3.org/2000/svg">
<path d="M16.7453 15C17.5362 13.8661 18 12.4872 18 11C18 10.4851 17.9444 9.9832 17.8389 9.49996M5.25469 15C4.46381 13.8662 4 12.4872 4 11C4 7.13401 7.13401 4 11 4C11.4221 4 11.8355 4.03737 12.2371 4.10897M15.4999 6.5L10.9999 11M21 11C21 16.5228 16.5228 21 11 21C5.47715 21 1 16.5228 1 11C1 5.47715 5.47715 1 11 1C16.5228 1 21 5.47715 21 11ZM12 11C12 11.5523 11.5523 12 11 12C10.4477 12 10 11.5523 10 11C10 10.4477 10.4477 10 11 10C11.5523 10 12 10.4477 12 11Z" stroke="#FF9549
" stroke-width="1.5" stroke-linecap="round" stroke-linejoin="round"/>
</svg>
