<svg width="44" height="44" viewBox="0 0 44 44" fill="none" xmlns="http://www.w3.org/2000/svg">
<path d="M14.4259 28.3432L12.8333 40.3334L21.2454 35.2861C21.5198 35.1215 21.6569 35.0392 21.8034 35.007C21.9329 34.9786 22.0671 34.9786 22.1966 35.007C22.3431 35.0392 22.4802 35.1215 22.7546 35.2861L31.1667 40.3334L29.5752 28.338M30.1141 7.78963C30.3973 8.47442 30.9407 9.01873 31.6251 9.30291L34.0247 10.2969C34.7095 10.5806 35.2536 11.1247 35.5373 11.8095C35.8209 12.4944 35.8209 13.2638 35.5373 13.9487L34.544 16.3467C34.2602 17.0318 34.2598 17.8021 34.5449 18.4869L35.5364 20.8842C35.677 21.2233 35.7495 21.5869 35.7495 21.9541C35.7496 22.3213 35.6773 22.6849 35.5368 23.0241C35.3963 23.3634 35.1903 23.6716 34.9306 23.9312C34.6709 24.1908 34.3627 24.3967 34.0234 24.5371L31.6255 25.5304C30.9407 25.8135 30.3964 26.357 30.1123 27.0414L29.1183 29.4411C28.8346 30.1259 28.2906 30.67 27.6057 30.9537C26.9209 31.2374 26.1515 31.2374 25.4667 30.9537L23.0688 29.9604C22.3839 29.6775 21.6148 29.678 20.9304 29.962L18.5307 30.9546C17.8463 31.2376 17.0775 31.2374 16.3933 30.9539C15.709 30.6705 15.1652 30.127 14.8814 29.4429L13.8871 27.0425C13.604 26.3577 13.0605 25.8134 12.3762 25.5292L9.97654 24.5352C9.29202 24.2517 8.7481 23.7079 8.46434 23.0235C8.18057 22.339 8.18019 21.5699 8.46327 20.8852L9.45651 18.4872C9.73947 17.8023 9.7389 17.0331 9.45491 16.3487L8.46309 13.9473C8.32247 13.6081 8.25006 13.2445 8.25 12.8773C8.24994 12.5101 8.32223 12.1465 8.46274 11.8073C8.60326 11.468 8.80923 11.1598 9.06891 10.9002C9.32858 10.6406 9.63686 10.4347 9.97613 10.2943L12.374 9.30105C13.0582 9.01815 13.6022 8.47534 13.8865 7.79176L14.8805 5.39205C15.1642 4.70721 15.7082 4.16311 16.3931 3.87944C17.0779 3.59577 17.8473 3.59577 18.5321 3.87944L20.93 4.87272C21.6149 5.15569 22.384 5.15511 23.0685 4.87111L25.4691 3.88098C26.1538 3.59747 26.9231 3.59753 27.6078 3.88114C28.2925 4.16475 28.8365 4.7087 29.1202 5.39336L30.1144 7.79379L30.1141 7.78963Z" stroke="white" stroke-width="2" stroke-linecap="round" stroke-linejoin="round"/>
</svg>
