<svg width="30" height="30" viewBox="0 0 30 30" fill="none" xmlns="http://www.w3.org/2000/svg">
<path d="M20 5C21.1625 5 21.7437 5 22.2206 5.12778C23.5147 5.47453 24.5255 6.48533 24.8722 7.77943C25 8.2563 25 8.83754 25 10V21.5C25 23.6002 25 24.6503 24.5913 25.4525C24.2317 26.1581 23.6581 26.7317 22.9525 27.0913C22.1503 27.5 21.1002 27.5 19 27.5H11C8.8998 27.5 7.8497 27.5 7.04754 27.0913C6.34193 26.7317 5.76825 26.1581 5.40873 25.4525C5 24.6503 5 23.6002 5 21.5V10C5 8.83754 5 8.2563 5.12778 7.77943C5.47453 6.48533 6.48533 5.47453 7.77943 5.12778C8.2563 5 8.83754 5 10 5M11.25 18.75L13.75 21.25L19.375 15.625M12 7.5H18C18.7001 7.5 19.0501 7.5 19.3175 7.36376C19.5527 7.24392 19.7439 7.05269 19.8638 6.81749C20 6.5501 20 6.20007 20 5.5V4.5C20 3.79993 20 3.4499 19.8638 3.18251C19.7439 2.94731 19.5527 2.75608 19.3175 2.63624C19.0501 2.5 18.7001 2.5 18 2.5H12C11.2999 2.5 10.9499 2.5 10.6825 2.63624C10.4473 2.75608 10.2561 2.94731 10.1362 3.18251C10 3.4499 10 3.79993 10 4.5V5.5C10 6.20007 10 6.5501 10.1362 6.81749C10.2561 7.05269 10.4473 7.24392 10.6825 7.36376C10.9499 7.5 11.2999 7.5 12 7.5Z" stroke="#FF9549" stroke-width="1.5" stroke-linecap="round" stroke-linejoin="round"/>
</svg>
