<svg width="30" height="30" viewBox="0 0 30 30" fill="none" xmlns="http://www.w3.org/2000/svg">
<path d="M10 10H10.0125M2.5 6.5L2.5 12.0931C2.5 12.7046 2.5 13.0104 2.56908 13.2981C2.63032 13.5532 2.73133 13.797 2.8684 14.0207C3.023 14.273 3.23919 14.4892 3.67157 14.9216L13.2574 24.5074C14.7424 25.9924 15.485 26.7349 16.3412 27.0132C17.0943 27.2579 17.9056 27.2579 18.6588 27.0132C19.515 26.7349 20.2576 25.9924 21.7426 24.5074L24.5074 21.7426C25.9924 20.2576 26.7349 19.515 27.0132 18.6588C27.2579 17.9056 27.2579 17.0943 27.0132 16.3412C26.7349 15.485 25.9924 14.7424 24.5074 13.2574L14.9216 3.67157C14.4892 3.23919 14.273 3.023 14.0207 2.8684C13.797 2.73133 13.5532 2.63032 13.2981 2.56908C13.0104 2.5 12.7046 2.5 12.0931 2.5L6.5 2.5C5.09987 2.5 4.3998 2.5 3.86502 2.77248C3.39462 3.01217 3.01217 3.39462 2.77248 3.86502C2.5 4.3998 2.5 5.09987 2.5 6.5ZM10.625 10C10.625 10.3452 10.3452 10.625 10 10.625C9.65482 10.625 9.375 10.3452 9.375 10C9.375 9.65482 9.65482 9.375 10 9.375C10.3452 9.375 10.625 9.65482 10.625 10Z" stroke="#FF9549" stroke-width="1.5" stroke-linecap="round" stroke-linejoin="round"/>
</svg>
